<?xml version="1.0" standalone="no"?>
<!DOCTYPE svg PUBLIC "-//W3C//DTD SVG 20010904//EN"
 "http://www.w3.org/TR/2001/REC-SVG-20010904/DTD/svg10.dtd">
<svg version="1.0" xmlns="http://www.w3.org/2000/svg"
 width="586.000000pt" height="586.000000pt" viewBox="0 0 586.000000 586.000000"
 preserveAspectRatio="xMidYMid meet">
<metadata>
Created by potrace 1.11, written by Peter Selinger 2001-2013
</metadata>
<g transform="translate(0.000000,586.000000) scale(0.100000,-0.100000)"
fill="#000000" stroke="none">
<path d="M2638 5592 c-1 -4 -57 -15 -123 -25 -258 -37 -572 -135 -820 -257
-491 -242 -955 -701 -1199 -1189 -139 -276 -235 -591 -266 -871 -7 -58 -16
-113 -21 -122 -13 -25 -12 -395 1 -403 6 -3 10 -22 10 -42 0 -67 30 -248 66
-393 155 -633 545 -1189 1104 -1572 249 -171 545 -303 859 -384 146 -38 352
-74 419 -74 23 0 42 -4 42 -10 0 -6 83 -10 230 -10 147 0 230 4 230 10 0 6 16
10 35 10 92 0 341 48 519 100 939 273 1669 1047 1880 1992 15 64 32 162 38
217 7 56 16 101 20 101 12 0 10 498 -2 505 -5 3 -10 21 -10 39 0 19 -9 86 -20
150 -110 632 -441 1200 -936 1605 -251 206 -450 323 -739 436 -187 74 -409
134 -585 160 -63 9 -123 21 -132 26 -21 11 -595 12 -600 1z"/>
</g>
</svg>
